# xmcd
#
# Track frame offsets: 
#        150
#        69168
#        124275
#        187153
#
# Disc length: 3230 seconds
#
# Revision: 0
# Processed by: cddbd v1.5.2PL0 Copyright (c) Steve Scherf et al.
# Submitted via: ExactAudioCopy v1.3
#
DISCID=360c9c04
DTITLE=Various Artist - American Country Countdown with Kix Brooks, S
DTITLE=how 2009-31 Hour #3
DYEAR=2009
DGENRE=Hick 'ic
TTITLE0=Segment 09
TTITLE1=Segment 10
TTITLE2=Segment 11
TTITLE3=Segment 12
EXTD=
EXTT0=
EXTT1=
EXTT2=
EXTT3=
PLAYORDER=
